<?xml version="1.0"?>
<svg xmlns="http://www.w3.org/2000/svg" data-name="Layer 1" id="Layer_1" viewBox="0 0 128 128"><title/><path d="M2,104H66a2,2,0,0,0,0-4H49.30054l4.38892-6.92969A2.00011,2.00011,0,0,0,52,90H45.11749L29.70313,64.95166A1.99995,1.99995,0,0,0,26,66v6.48145L16.26746,90H10a1.99995,1.99995,0,0,0-1.71484,3.02881L12.4679,100H2a2,2,0,0,0,0,4ZM30,73.06592,40.421,90H30Zm-4,7.65265V90H20.84363ZM48.36572,94l-3.7998,6H17.13232l-3.6001-6Z"/><path d="M126,108h-8a2,2,0,0,0,0,4h8a2,2,0,0,0,0-4Z"/><path d="M110.003,108h-8a2,2,0,0,0,0,4h8a2,2,0,0,0,0-4Z"/><path d="M94.003,108h-8a2,2,0,0,0,0,4h8a2,2,0,1,0,0-4Z"/><path d="M44.003,108h-10a2,2,0,0,0,0,4h10a2,2,0,1,0,0-4Z"/><path d="M26.003,108h-8a2,2,0,0,0,0,4h8a2,2,0,1,0,0-4Z"/><path d="M10,108H2a2,2,0,0,0,0,4h8a2,2,0,0,0,0-4Z"/><path d="M78.003,108h-26a2,2,0,0,0,0,4h26a2,2,0,1,0,0-4Z"/><path d="M111.003,92h-6a2,2,0,0,0,0,4h6a2,2,0,0,0,0-4Z"/><path d="M86.003,92a2,2,0,0,0,0,4h6a2,2,0,1,0,0-4Z"/><path d="M126,86.99951h-6a2,2,0,0,0,0,4h6a2,2,0,0,0,0-4Z"/><path d="M122.003,103a2,2,0,0,0,0-4h-6a2,2,0,0,0,0,4Z"/><path d="M104.003,102a2.0001,2.0001,0,0,0-2-2h-6a2,2,0,0,0,0,4h6A2.0001,2.0001,0,0,0,104.003,102Z"/><path d="M68.003,96h6a2,2,0,1,0,0-4h-6a2,2,0,0,0,0,4Z"/><path d="M82.003,84.99951a2.0001,2.0001,0,0,0-2-2h-6a2,2,0,0,0,0,4h6A2.0001,2.0001,0,0,0,82.003,84.99951Z"/><path d="M58.003,86.99951h6a2,2,0,0,0,0-4h-6a2,2,0,0,0,0,4Z"/><path d="M85.003,101.99951a2.0001,2.0001,0,0,0-2-2h-6a2,2,0,1,0,0,4h6A2.0001,2.0001,0,0,0,85.003,101.99951Z"/><path d="M100.003,84.99951a2.0001,2.0001,0,0,0-2-2h-6a2,2,0,0,0,0,4h6A2.0001,2.0001,0,0,0,100.003,84.99951Z"/><path d="M59.36774,48.62891,61.89362,46.271l3.70508,3.65332a2.02651,2.02651,0,0,0,2.82813-.02,2.00079,2.00079,0,0,0-.01953-2.82861l-5.07129-5a2.00084,2.00084,0,0,0-2.769-.03809l-3.92871,3.6665a2.00029,2.00029,0,1,0,2.72949,2.9248Z"/><path d="M105.73151,61.04395a2.03441,2.03441,0,0,0,2.81543-.27246,2.00033,2.00033,0,0,0-.27246-2.81543l-6.07129-5a2.0002,2.0002,0,0,0-2.63574.08154l-3.92871,3.6665a2,2,0,0,0,2.72852,2.9248l2.64648-2.47021Z"/><path d="M27.75348,22.91406h.00586a1.99979,1.99979,0,0,0,2-1.99414l.0083-2.91406A2.00011,2.00011,0,0,0,27.7735,16h-.00586a1.99979,1.99979,0,0,0-2,1.99414l-.0083,2.91406A2.00011,2.00011,0,0,0,27.75348,22.91406Z"/><path d="M15.105,26.56494a1.99987,1.99987,0,0,0,2.93457-2.71777L16.378,22.05322A1.99987,1.99987,0,0,0,13.44342,24.771Z"/><path d="M19.253,22.33057a2.02762,2.02762,0,0,0,2.30713,1.63623,2.00013,2.00013,0,0,0,1.63623-2.30713l-.44775-2.63281a2,2,0,1,0-3.94336.6709Z"/><path d="M10.57428,31.41748l2.47021.542a2.0001,2.0001,0,1,0,.85742-3.90723l-2.47021-.542a2.0001,2.0001,0,1,0-.85742,3.90723Z"/><path d="M39.43317,27.18781a2.00009,2.00009,0,0,0,1.46777-.62286L42.56256,24.771A1.99987,1.99987,0,0,0,39.628,22.05322l-1.66162,1.79395A2.00806,2.00806,0,0,0,39.43317,27.18781Z"/><path d="M34.44586,23.9668A2.01888,2.01888,0,0,0,36.753,22.33057l.44775-2.63281a2,2,0,1,0-3.94336-.6709l-.44775,2.63281A2.00013,2.00013,0,0,0,34.44586,23.9668Z"/><path d="M40.57916,30.43457a2.00076,2.00076,0,0,0,1.95166,1.57178,26.92352,26.92352,0,0,0,2.90088-.58887,2.0001,2.0001,0,0,0-.85742-3.90723l-2.47021.542A2.00027,2.00027,0,0,0,40.57916,30.43457Z"/><path d="M27.80475,25.0293A11.14088,11.14088,0,0,0,16.9776,33.15479a2.00012,2.00012,0,1,0,3.83008,1.1543A7.12342,7.12342,0,0,1,27.8194,29.0293a7.60394,7.60394,0,0,1,7.38281,5.541,2.02966,2.02966,0,0,0,2.4873,1.34668,2.0002,2.0002,0,0,0,1.34668-2.4873A11.66317,11.66317,0,0,0,27.80475,25.0293Z"/><path d="M79.51862,27.94043c1.12793.28174,2.125.89209,1.7793,3.42725a1.99983,1.99983,0,0,0,2.72852,2.12549c.03027-.01221,3.09277-1.15723,4.77539.106a2,2,0,1,0,2.40234-3.19824,8.07181,8.07181,0,0,0-5.94434-1.291,5.96371,5.96371,0,0,0-4.77246-5.05029,2,2,0,1,0-.96875,3.88086Z"/><path d="M3.31055,64.51611,28.33331,43.002l18.3302,16.55371a1.99992,1.99992,0,0,0,2.68054-2.96875l-7.42914-6.70917,20.2113-19.85187L84.522,51.39783l-7.86621,7.16565a1.99985,1.99985,0,0,0,2.69324,2.957L99.69965,43.00244,124.6955,64.516a2.03512,2.03512,0,0,0,2.82025-.2113,2.00045,2.00045,0,0,0-.21088-2.8208L102.3089,39.9707a4.01993,4.01993,0,0,0-5.324.07422l-9.49866,8.65271L64.91852,27.16211a3.93082,3.93082,0,0,0-5.58026-.019L38.9408,47.19183l-7.92743-7.15912a4.02319,4.02319,0,0,0-5.3103-.0625L.70129,61.48389a1.98852,1.98852,0,0,0-.21143,2.82074A1.8938,1.8938,0,0,0,3.31055,64.51611Z"/></svg>
