<svg id="Icons" viewBox="0 0 60 60" xmlns="http://www.w3.org/2000/svg"><path d="m58 23h-14v-3h1c1.103 0 2-.897 2-2v-16c0-1.103-.897-2-2-2h-30c-1.103 0-2 .897-2 2v16c0 1.103.897 2 2 2h1v3h-14c-1.103 0-2 .897-2 2v8c0 1.103.897 2 2 2v23c0 1.103.897 2 2 2h52c1.103 0 2-.897 2-2v-23c1.103 0 2-.897 2-2v-8c0-1.103-.897-2-2-2zm-16 0h-3v-3h3zm-5-3v3h-14v-3zm-22-18h30l.002 16h-30.002zm3 18h3v3h-3zm40 5v3s-56 0-56 0v-3zm-40 33h-8v-16h8zm38 0h-36v-16c0-1.103-.897-2-2-2h-8c-1.103 0-2 .897-2 2v16h-4v-23h52zm-54-25v-3h56.001v3s-56.001 0-56.001 0z"/><path d="m25 51h10c1.103 0 2-.897 2-2v-7c0-1.103-.897-2-2-2h-10c-1.103 0-2 .897-2 2v7c0 1.103.897 2 2 2zm0-9h10l.002 7h-10.002z"/><path d="m41 51h10c1.103 0 2-.897 2-2v-7c0-1.103-.897-2-2-2h-10c-1.103 0-2 .897-2 2v7c0 1.103.897 2 2 2zm0-9h10l.002 7h-10.002z"/><path d="m25.5 12.26c1.559-.899 3.5-2.02 3.5-4.472 0-2.124-1.757-3.788-4-3.788-2.808 0-3.873 2.364-3.917 2.465-.219.502.009 1.082.508 1.307s1.089 0 1.32-.496c.024-.052.609-1.275 2.088-1.275 1.14 0 2 .769 2 1.788 0 1.234-.95 1.846-2.5 2.74-1.559.899-3.5 2.02-3.5 4.472 0 .553.448 1 1 1h6c.552 0 1-.447 1-1s-.448-1-1-1h-4.734c.384-.643 1.167-1.124 2.234-1.74z"/><path d="m38 11h-1v-1c0-.553-.447-1-1-1s-1 .447-1 1v1h-1.674l1.636-5.726c.151-.53-.156-1.084-.688-1.236-.525-.146-1.084.155-1.236.688l-2 7c-.086.302-.025.626.163.877.189.25.485.397.799.397h3v2c0 .553.447 1 1 1s1-.447 1-1v-2h1c.553 0 1-.447 1-1s-.447-1-1-1z"/></svg>