<svg id="ICONS" enable-background="new 0 0 64 64" height="64" viewBox="0 0 64 64" width="64" xmlns="http://www.w3.org/2000/svg"><g><g fill="none" stroke="#202020" stroke-linejoin="round" stroke-miterlimit="10" stroke-width="2"><path d="m12 5h40v54h-40z" stroke-linecap="round"/><path d="m12 52h40" stroke-linecap="round"/><path d="m12 19h40" stroke-linecap="round"/><circle cx="33" cy="35" r="12" stroke-linecap="round"/><circle cx="33" cy="35" r="8" stroke-linecap="round"/><path d="m25 33c2.666 0 2.666 4 5.331 4 2.667 0 2.667-4 5.334-4s2.667 4 5.335 4"/><path d="m21 34h-4v10" stroke-linecap="round"/><circle cx="20" cy="12" r="3" stroke-linecap="round"/></g><circle cx="28" cy="10" fill="#202020" r="1.5"/><circle cx="33" cy="10" fill="#202020" r="1.5"/><circle cx="28" cy="14" fill="#202020" r="1.5"/><circle cx="33" cy="14" fill="#202020" r="1.5"/><path d="m20 9v2" style="fill:none;stroke:#202020;stroke-width:2;stroke-linecap:round;stroke-linejoin:round;stroke-miterlimit:10"/><path d="m39 9h8v6h-8z" style="fill:none;stroke:#202020;stroke-width:2;stroke-linecap:round;stroke-linejoin:round;stroke-miterlimit:10"/><path d="m43 9v3" style="fill:none;stroke:#202020;stroke-width:2;stroke-linecap:round;stroke-linejoin:round;stroke-miterlimit:10"/></g></svg>