<svg id="Слой_1" height="512" viewBox="0 0 500 500" width="512" xmlns="http://www.w3.org/2000/svg"><g><path d="m222.419 315.025c35.326 0 64.065-28.74 64.065-64.066s-28.739-64.066-64.065-64.066-64.066 28.74-64.066 64.066 28.74 64.066 64.066 64.066zm0-113.132c27.055 0 49.065 22.011 49.065 49.066 0 27.056-22.011 49.066-49.065 49.066-27.055 0-49.066-22.011-49.066-49.066s22.011-49.066 49.066-49.066z"/><path d="m484.374 405.921c-49.889-13.057-84.732-58.266-84.732-109.94v-60.66c0-12.679-10.314-22.993-22.993-22.993h-47.822v-59.033h20.796c6.803 0 12.819-4.086 15.327-10.409 2.509-6.324.929-13.423-4.023-18.086l-129.652-122.07c-.052-.049-.104-.097-.157-.144-1.842-1.638-4.213-2.54-6.677-2.54-2.403 0-4.73.863-6.552 2.43-.056.048-.112.098-.167.147l-133.624 122.005c-5.065 4.625-6.736 11.745-4.256 18.14s8.515 10.527 15.374 10.527h20.468v103.114h-87.692c-1.063 0-2.072.224-2.988.622v-37.204c0-4.142-3.358-7.5-7.5-7.5s-7.5 3.358-7.5 7.5v266.871c0 4.143 3.358 7.5 7.5 7.5s7.5-3.357 7.5-7.5v-30.851c.821.309 1.706.485 2.635.485h88.045v32.974c0 5.86 4.796 10.629 10.692 10.629h43.559c5.861 0 10.629-4.769 10.629-10.629v-125.666h83.321v125.666c0 5.86 4.796 10.629 10.691 10.629h43.56c5.896 0 10.691-4.769 10.691-10.629v-87.242c26.356 57.691 84.599 97.882 152.059 97.882h1.464c.047.001.093.001.139.001.904 0 1.813-.162 2.679-.492 3.128-1.191 5.057-4.293 4.81-7.568v-78.709c-.002-3.412-2.304-6.393-5.604-7.257zm-390.547-268.577c-.369-.951.198-1.468.385-1.639l130.178-118.855 126.253 118.87c.183.172.737.693.364 1.634s-1.135.94-1.385.94h-27.977c-.107-.005-.212-.016-.319-.016s-.213.012-.319.016h-197.505c-.107-.005-.212-.016-.319-.016s-.213.012-.319.016h-27.649c-.252 0-1.02 0-1.388-.95zm219.999 15.95v172.791 6.497c-.004.097-.015.192-.015.29 0 .386.012.768.015 1.153v14.614h-42.152c-.097-.004-.192-.015-.29-.015s-.193.011-.29.015h-97.74c-.097-.004-.192-.015-.29-.015s-.193.011-.29.015h-42.09v-22.555-172.79zm-288.823 179.314c.788.281 1.633.442 2.517.442h88.163v46.642h-87.927c-.973 0-1.899.191-2.752.528v-47.612zm2.989-61.2h87.691v46.642h-88.162c-.884 0-1.729.161-2.517.442v-47.706c.915.398 1.925.622 2.988.622zm-.354 169.924c-.929 0-1.814.177-2.635.485v-47.654c.853.337 1.78.528 2.752.528h87.927v46.641zm137.925 43.603h-34.88v-121.295h34.88zm113.321 0v-121.295h34.942v121.295zm196.092-.103c-80.732-3.103-145.526-69.444-146.149-150.778v-7.969-98.758h47.822c4.407 0 7.993 3.586 7.993 7.993v60.66c0 56.54 36.858 106.243 90.334 122.851z"/></g></svg>