<svg id="Layer_1" enable-background="new 0 0 512 512" height="512" viewBox="0 0 512 512" width="512" xmlns="http://www.w3.org/2000/svg"><g><g><path d="m199.832 400.545h-27.979c-4.142 0-7.5-3.357-7.5-7.5s3.358-7.5 7.5-7.5h27.979c4.142 0 7.5 3.357 7.5 7.5s-3.358 7.5-7.5 7.5z"/></g><g><path d="m131.828 400.545h-27.978c-4.142 0-7.5-3.357-7.5-7.5s3.358-7.5 7.5-7.5h27.978c4.142 0 7.5 3.357 7.5 7.5s-3.358 7.5-7.5 7.5z"/></g><g><path d="m267.863 336.788h-28.006c-4.142 0-7.5 3.357-7.5 7.5s3.358 7.5 7.5 7.5h28.006c4.142 0 7.5-3.357 7.5-7.5s-3.358-7.5-7.5-7.5z"/><path d="m267.863 385.545h-28.006c-4.142 0-7.5 3.357-7.5 7.5s3.358 7.5 7.5 7.5h28.006c4.142 0 7.5-3.357 7.5-7.5s-3.358-7.5-7.5-7.5z"/><path d="m335.866 336.788h-27.978c-4.142 0-7.5 3.357-7.5 7.5s3.358 7.5 7.5 7.5h27.978c4.142 0 7.5-3.357 7.5-7.5s-3.358-7.5-7.5-7.5z"/><path d="m335.866 385.545h-27.978c-4.142 0-7.5 3.357-7.5 7.5s3.358 7.5 7.5 7.5h27.978c4.142 0 7.5-3.357 7.5-7.5s-3.358-7.5-7.5-7.5z"/><path d="m267.863 434.303h-28.006c-4.142 0-7.5 3.357-7.5 7.5s3.358 7.5 7.5 7.5h28.006c4.142 0 7.5-3.357 7.5-7.5s-3.358-7.5-7.5-7.5z"/><path d="m335.866 434.303h-27.978c-4.142 0-7.5 3.357-7.5 7.5s3.358 7.5 7.5 7.5h27.978c4.142 0 7.5-3.357 7.5-7.5s-3.358-7.5-7.5-7.5z"/><path d="m199.832 434.303h-27.979c-4.142 0-7.5 3.357-7.5 7.5s3.358 7.5 7.5 7.5h27.979c4.142 0 7.5-3.357 7.5-7.5s-3.358-7.5-7.5-7.5z"/><path d="m375.892 336.788c-4.142 0-7.5 3.357-7.5 7.5s3.358 7.5 7.5 7.5h28.006c4.142 0 7.5-3.357 7.5-7.5s-3.358-7.5-7.5-7.5z"/><path d="m403.898 385.545h-28.006c-4.142 0-7.5 3.357-7.5 7.5s3.358 7.5 7.5 7.5h28.006c4.142 0 7.5-3.357 7.5-7.5s-3.358-7.5-7.5-7.5z"/><path d="m403.898 434.303h-28.006c-4.142 0-7.5 3.357-7.5 7.5s3.358 7.5 7.5 7.5h28.006c4.142 0 7.5-3.357 7.5-7.5s-3.358-7.5-7.5-7.5z"/><path d="m131.828 434.303h-27.978c-4.142 0-7.5 3.357-7.5 7.5s3.358 7.5 7.5 7.5h27.978c4.142 0 7.5-3.357 7.5-7.5s-3.358-7.5-7.5-7.5z"/><path d="m199.86 385.545h-28.007c-4.142 0-7.5 3.357-7.5 7.5s3.358 7.5 7.5 7.5h28.007c4.142 0 7.5-3.357 7.5-7.5s-3.358-7.5-7.5-7.5z"/><path d="m131.828 385.545h-27.978c-4.142 0-7.5 3.357-7.5 7.5s3.358 7.5 7.5 7.5h27.978c4.142 0 7.5-3.357 7.5-7.5s-3.358-7.5-7.5-7.5z"/><path d="m124.402 176.705 32.514-15.364c3.745-1.77 5.346-6.24 3.576-9.985s-6.241-5.348-9.985-3.577l-32.514 15.364c-3.745 1.77-5.346 6.24-3.576 9.985 1.28 2.71 3.975 4.298 6.786 4.298 1.073 0 2.164-.232 3.199-.721z"/><path d="m128.449 217.55c1.281 2.709 3.975 4.296 6.785 4.296 1.074 0 2.166-.232 3.201-.722l43.88-20.75c3.745-1.771 5.345-6.242 3.574-9.986s-6.241-5.343-9.986-3.574l-43.88 20.75c-3.744 1.77-5.344 6.242-3.574 9.986z"/><path d="m490.837 236.807h-39.362c1.835-10.795.259-18.825-1.183-26.086-2.446-12.313-4.756-23.943 9.111-51.925l15.816-31.917c.783.174 1.579.269 2.379.269 1.194 0 2.394-.194 3.56-.587 2.818-.949 5.091-2.937 6.391-5.577l10.783-21.736c2.702-5.49.431-12.156-5.042-14.849l-48.185-23.896c-2.644-1.316-5.647-1.52-8.461-.57-2.828.953-5.109 2.949-6.413 5.599l-10.761 21.692c-1.324 2.648-1.53 5.659-.58 8.479.66 1.959 1.83 3.646 3.363 4.938l-15.833 31.902c-.001.002-.002.004-.003.006-13.854 27.984-24.509 33.184-35.788 38.688-5.787 2.824-11.674 5.699-17.688 11.07-3.18-5.08-7.036-9.607-11.422-13.493 16.971-11.101 26.347-31.683 26.139-58.451-.017-2.119-.929-4.132-2.511-5.541-1.583-1.411-3.689-2.082-5.793-1.857-35.225 3.802-55.182 20.296-60.82 50.33-5.736.165-11.414 1.124-16.85 2.825v-116.424c0-17.313-14.084-31.397-31.396-31.397-17.328 0-31.424 14.085-31.424 31.397v44.165c0 4.143 3.358 7.5 7.5 7.5s7.5-3.357 7.5-7.5v-44.165c0-9.042 7.368-16.397 16.424-16.397 9.041 0 16.396 7.355 16.396 16.397v127.704 69.406h-32.82v-117.54c0-4.143-3.358-7.5-7.5-7.5s-7.5 3.357-7.5 7.5v68.522c-10.387-25.959-24.503-49.66-42.612-71.648-13-15.769-26.533-26.756-40.222-32.655-13.67-5.893-26.714-6.255-37.72-1.049-11.005 5.205-18.999 15.517-23.117 29.82-4.123 14.322-4.215 31.75-.274 51.796 5.083 25.921 13.41 49.839 25.331 72.754h-18.17-60.945c-11.654.001-21.135 9.482-21.135 21.135v23.67c0 11.67 9.481 21.164 21.135 21.164h2.506v119.127c0 45.104 36.694 81.799 81.796 81.799h301.125c45.087 0 81.768-36.694 81.768-81.799v-119.127h2.506c11.669 0 21.163-9.494 21.163-21.164v-23.67c.001-11.653-9.493-21.134-21.162-21.134zm-48.895-161.128 41.202 20.432-7.295 14.706-41.211-20.412zm-93.8 138.905c2.492-5.028 5.299-9.93 8.708-14.397 6.782-8.836 13.227-11.989 20.359-15.469 12.435-6.069 26.529-12.947 42.652-45.513l15.687-31.608 26.08 12.928-15.665 31.61c-16.134 32.556-13.079 47.938-10.383 61.508 1.455 7.32 2.74 13.792.628 23.163h-99.062zm4.186-95.436c-1.76 20.071-10.425 34.114-24.934 40.26-4.376-2.107-9.024-3.697-13.859-4.735 4.179-20.184 16.22-31.22 38.793-35.525zm-70.644 52.937c5.842-2.506 12.206-3.817 18.636-3.817 4.146 0 8.301.552 12.306 1.626 3.92 1.052 7.389 2.783 11.033 4.502 8.004 4.544 14.618 11.422 18.874 19.983-2.948 4.307-5.515 8.874-7.832 13.548l-14.291 28.879h-38.726zm-192.047-10.923c-6.438-32.749-.658-57.72 15.085-65.166 15.749-7.448 38.72 3.929 59.953 29.684 26.684 32.398 44.21 68.772 53.517 111.127h-100.912c-13.271-23.741-22.325-48.53-27.643-75.645zm-.057 90.645h262.032l-262.032 110.571zm-68.445 35.968c-3.383 0-6.135-2.766-6.135-6.164v-23.67c0-3.383 2.752-6.135 6.135-6.135h53.445v35.969zm475.865-6.164c0 3.398-2.765 6.164-6.163 6.164h-76.848c-4.142 0-7.5 3.357-7.5 7.5s3.358 7.5 7.5 7.5h59.341v119.127c0 36.833-29.952 66.799-66.768 66.799h-301.125c-36.832 0-66.796-29.966-66.796-66.799v-119.127h35.939v70.908c0 2.514 1.259 4.86 3.354 6.25 1.248.827 2.692 1.25 4.146 1.25.987 0 1.979-.195 2.916-.59l184.413-77.818h109.941c4.142 0 7.5-3.357 7.5-7.5s-3.358-7.5-7.5-7.5h-74.394l85.238-35.969h100.643c3.398 0 6.163 2.752 6.163 6.135z"/></g></g></svg>