<?xml version="1.0"?>
<svg xmlns="http://www.w3.org/2000/svg" viewBox="0 0 48 48" width="512" height="512"><g id="Swimming"><path d="M3,32.8654a6.1212,6.1212,0,0,1,.9753.0718c.026.0074.0523.0109.0788.0162a5.4668,5.4668,0,0,1,1.9332.7977,6.9871,6.9871,0,0,0,4.0093,1.1631,6.9129,6.9129,0,0,0,3.9712-1.1406c.0132-.0069.0259-.0137.039-.0215a5.0555,5.0555,0,0,1,2.9864-.8867,5.1223,5.1223,0,0,1,2.9961.8857,6.9442,6.9442,0,0,0,4,1.1631A7.04,7.04,0,0,0,28,33.7521a5.0554,5.0554,0,0,1,2.9863-.8867,5.1469,5.1469,0,0,1,3.0127.8955,6.9994,6.9994,0,0,0,3.9942,1.1533,6.9159,6.9159,0,0,0,2.7876-.52,10.11,10.11,0,0,0,1.22-.6417A5.2686,5.2686,0,0,1,45,32.8654a1,1,0,0,0,0-2,7.0661,7.0661,0,0,0-1.1616.082,7.1549,7.1549,0,0,0-2.8491,1.081,8.455,8.455,0,0,1-.99.5254,4.89,4.89,0,0,1-2.0058.36,5.0882,5.0882,0,0,1-3.0191-.8994,7.1934,7.1934,0,0,0-2.768-1.06l-8.24-12.0335,10.5586-5.2851A3.5474,3.5474,0,0,0,35.7813,8.339a3.6081,3.6081,0,0,0-4.3521-1.0713L16.8408,14.173a4.0721,4.0721,0,0,0-1.792,5.7l1.939,3.4482L4.0532,30.9345A8.2634,8.2634,0,0,0,3,30.8654a1,1,0,0,0,0,2Zm15.0073-7.8243a2.021,2.021,0,0,0,.7251-2.747L16.7842,18.879a2.0716,2.0716,0,0,1,.9131-2.8984L32.2827,9.0773a1.5365,1.5365,0,0,1,2.16,1.7529,1.5086,1.5086,0,0,1-.8106,1.0156L23.0781,17.129a2.0121,2.0121,0,0,0-1.061,1.293,2.0335,2.0335,0,0,0,.2881,1.666l7.4717,10.8654a7.1353,7.1353,0,0,0-2.7911,1.075,5.0537,5.0537,0,0,1-2.9961.8858,5.0778,5.0778,0,0,1-3.0087-.8994,7,7,0,0,0-3.9878-1.1494,6.9368,6.9368,0,0,0-3.979,1.15c-.0152.0079-.0308.0166-.0459.0254a5.0023,5.0023,0,0,1-2.9717.8731,5.092,5.092,0,0,1-2.9986-.8887c-.14-.0821-.2855-.1656-.4344-.2487Z"/><path d="M45,37.0118a7.0028,7.0028,0,0,0-4.0073,1.1612,5.5057,5.5057,0,0,1-5.9956,0,7.4928,7.4928,0,0,0-8.0132,0,5.0869,5.0869,0,0,1-2.9951.8877,5.0775,5.0775,0,0,1-2.9917-.8877,6.9866,6.9866,0,0,0-4.0025-1.1612A6.9936,6.9936,0,0,0,12.99,38.173a5.0818,5.0818,0,0,1-2.9936.8877,5.0816,5.0816,0,0,1-2.9932-.8877A6.9913,6.9913,0,0,0,3,37.0118a1,1,0,0,0,0,2A5.0811,5.0811,0,0,1,5.9927,39.9a6.9918,6.9918,0,0,0,4.0039,1.1612A6.9936,6.9936,0,0,0,14.001,39.9a5.0818,5.0818,0,0,1,2.9936-.8877,5.0775,5.0775,0,0,1,2.9917.8877,6.9866,6.9866,0,0,0,4.0025,1.1612A6.9972,6.9972,0,0,0,27.9946,39.9a5.5008,5.5008,0,0,1,5.9927,0,7.4961,7.4961,0,0,0,8.0151,0A5.0955,5.0955,0,0,1,45,39.0118a1,1,0,0,0,0-2Z"/><path d="M30.6831,22.6466A7.1463,7.1463,0,1,0,37.8291,15.5,7.1536,7.1536,0,0,0,30.6831,22.6466ZM37.8291,17.5a5.146,5.146,0,1,1-5.146,5.1465A5.1522,5.1522,0,0,1,37.8291,17.5Z"/></g></svg>
