<svg id="svg8" height="512" viewBox="0 0 16.933333 16.933333" width="512" xmlns="http://www.w3.org/2000/svg" xmlns:svg="http://www.w3.org/2000/svg"><g id="layer2"><path id="rect1555" d="m12.698937 1.3223976v6.3505167c-.29581 0-.528.2395516-.52813.5281332l-.001 2.3827995h-10.5817909c-.59196993 0-1.05884993.47711-1.05884993 1.05885v2.644283c0 .581741.46885 1.05885 1.05884993 1.05885h.26355v.792717c-.00056.146928.11869.266177.26562.265617h1.8515699c.1461201-.000582.26514-.119497.2645801-.265617v-.792717h8.4656309v.792717c-.000556.147131.11901.266465.26614.265617h1.85105c.14713.000846.26669-.118486.26613-.265617v-.792717h.26355c.59197 0 1.05833-.477109 1.05833-1.05885v-2.644283c0-.581741-.46626-1.05885-1.05833-1.05885h-.52968v-2.3827995c0-.2885816-.23387-.5281332-.52865-.5281332l-.000529-6.3505167c-.000031-.43516117-.351351-.79323314-.792726-.79323314s-.795315.35807197-.795315.79323314zm.7953-.2635498c.14392 0 .26355.1123947.26355.2635498l.00052 6.3505167h-.52917l-.000529-6.3505167c0-.1511551.12171-.2635498.265629-.2635498zm-7.5256409 2.462382c-1.8137499 0-3.55213.7310829-4.83381 2.0277831-.25801993.241011.13877.6336776.37672.3710368 1.18318-1.1970416 2.78513-1.8691365 4.45709-1.8691365 1.6721201 0 3.2759599.6719128 4.4591609 1.8691365.23955.2643934.63268-.1319519.37673-.3710368-1.2817106-1.2968973-3.0219708-2.0277831-4.8358909-2.0277831zm0 1.6644977c-1.3781701 0-2.6980099.5537698-3.67161 1.5389243-.27353.2326561.15188.6381642.37466.3710366.8750899-.8854784 2.0605799-1.3828611 3.29695-1.3828611 1.2362399-.0000003 2.42189.4975571 3.2969599 1.3828611.2426704.2560791.6282604-.1251307.3772404-.3710366-.9735705-.9849609-2.2961704-1.5389243-3.6742003-1.5389243zm0 1.6619141c-.9423101 0-1.8439399.3773339-2.5094001 1.0505818-.2569099.237023.1342102.635895.37465.373104.56696-.5735918 1.33423-.8945192 2.1347501-.8945192.8006199 0 1.5698499.3208113 2.13683.8945192.24555.2589273.6296099-.1285923.3767198-.373104-.6654898-.6733839-1.5711299-1.0505816-2.5135498-1.0505818zm6.7313809 1.3544393h1.58698v2.3817661h-1.58802zm-6.7313809.3074747c-.5067699 0-.99188.2030693-1.3492699.5648235-.25976.2511404.1280998.6352766.3767198.3731037.25888-.2620391.6076101-.4082438.9725501-.4082438.36474 0 .7157799.1464664.9746199.4082438.24866.2603259.63412-.1230135.3751699-.3731037-.3573399-.3613949-.8432998-.5648233-1.3497898-.5648235zm-4.38061 2.6039754h13.7578209c.29773 0 .52917.235566.52917.529166v2.644283c0 .297736-.23874.529167-.52917.529167h-13.7578209c-.2936 0-.52916-.231431-.52916-.529167v-2.644283c0-.2936.23143-.529166.52916-.529166zm1.32137.529166c-.44144 0-.79272.357475-.79272.792717s.35163.793233.79272.793233c.4410901 0 .7952999-.357991.7952999-.793233s-.35386-.792717-.7952999-.792717zm2.11925 0c-.4454699 0-.7953001.357475-.7953001.792717s.3548901.793233.7953001.793233c.4404098 0 .79272-.357991.79272-.793233s-.34725-.792717-.79272-.792717zm2.1161499 0c-.44255 0-.7952999.357475-.7952999.792717s.3548899.793233.7952999.793233c.4404101 0 .79272-.357991.79272-.793233s-.3501699-.792717-.79272-.792717zm-4.2353999.5271c.14099 0 .2661298.116358.2661298.265617s-.1230698.26355-.2661298.26355-.26355-.114291-.26355-.26355.12256-.265617.26355-.265617zm2.11925 0c.1419501 0 .2635499.116358.2635499.265617s-.1204899.26355-.2635499.26355c-.1430602 0-.26613-.114291-.26613-.26355s.12418-.265617.26613-.265617zm2.1161499 0c.1390301 0 .2635499.116358.2635499.265617s-.1194599.26355-.2635499.26355c-.1440899 0-.26613-.114291-.26613-.26355s.1271-.265617.26613-.265617zm1.5854299 0c-.3451198 0-.3451198.529167 0 .529167h2.3833211c.34512 0 .34512-.529167 0-.529167zm3.5723911 0c-.34511 0-.34511.529167 0 .529167h.6625c.34512 0 .34512-.529167 0-.529167zm-9.9218709 3.176033h1.32343v.529167h-1.32343zm10.8484309 0h1.32292v.529167h-1.32292z" font-variant-ligatures="normal" font-variant-position="normal" font-variant-caps="normal" font-variant-numeric="normal" font-variant-alternates="normal" font-feature-settings="normal" text-indent="0" text-align="start" text-decoration-line="none" text-decoration-style="solid" text-decoration-color="rgb(0,0,0)" text-transform="none" text-orientation="mixed" white-space="normal" shape-padding="0" isolation="auto" mix-blend-mode="normal" solid-color="rgb(0,0,0)" solid-opacity="1" vector-effect="none"/></g></svg>